<svg width="70" height="58" viewBox="0 0 70 58" fill="none" xmlns="http://www.w3.org/2000/svg">
<path d="M59.3663 28.3848C60.2641 29.6835 60.8549 31.0992 61.198 32.6115C61.5733 34.2659 61.6814 35.946 61.5238 37.6397C61.2743 40.3194 60.4293 42.7897 58.9 45.0078C57.7175 46.723 56.256 48.1446 54.3953 49.1202C52.4182 50.1568 50.2966 50.6796 48.093 50.9487C44.4604 51.3923 40.8148 51.133 37.1754 51.1941C35.536 51.2216 33.8957 51.1969 32.2558 51.1953C32.1411 51.1952 32.0265 51.1874 31.9119 51.1882C31.664 51.1899 25.1998 51.3981 25.2823 51.1496C25.6726 49.973 27.9919 48.3576 28.3945 47.1854C28.9242 45.6431 30.8371 44.0097 31.3147 42.4514C31.3883 42.2114 34.4762 42.3271 34.7257 42.327C38.3492 42.3269 41.9755 42.4552 45.5951 42.2963C47.3636 42.2187 49.131 41.9085 50.6149 40.771C51.8725 39.807 52.5013 38.5087 52.7198 36.9639C52.832 36.1704 52.8209 35.3819 52.6745 34.6068C52.2546 32.3823 50.8202 31.0955 48.7266 30.4617C48.0242 30.2491 47.2972 30.1465 46.5404 30.0584C46.4813 30.054 46.4508 30.0522 46.3974 30.0489C43.6238 29.9056 40.871 30.0121 38.1194 29.9774C38.0506 29.9765 37.9815 29.9737 37.9131 29.9788C37.6798 29.9962 37.6004 29.9374 37.7114 29.6885C38.7872 27.277 39.7375 24.8144 40.656 22.3397C40.7725 22.0259 40.917 21.9004 41.2693 21.908C42.3811 21.9319 43.4944 21.9312 44.6062 21.9029C45.9294 21.8691 47.2429 21.7325 48.444 21.1124C50.0527 20.282 50.9511 18.9698 51.136 17.145C51.2137 16.378 51.2026 15.6329 51.0053 14.8954C50.5285 13.1128 49.3158 12.1182 47.5618 11.7182C46.6759 11.5162 45.7762 11.4436 44.8704 11.4369C44.102 11.4313 43.3323 11.4055 42.5656 11.4416C41.8117 11.477 41.1388 11.3024 40.454 10.98C38.7125 10.16 36.9574 9.36764 35.191 8.60075C33.564 7.89443 31.9626 7.12913 30.3461 6.39842C29.594 6.05845 28.8353 5.73279 28.0741 5.41369C27.8411 5.316 27.7609 5.20819 27.8596 4.94772C28.0629 4.41163 28.2253 3.86015 28.4157 3.31897C28.6186 2.74249 28.4726 2.78379 29.1414 2.7794C30.5862 2.76992 32.031 2.77271 33.4758 2.77268C37.2717 2.7726 41.0676 2.76702 44.8634 2.77702C46.8829 2.78233 48.8904 2.92159 50.8528 3.44948C51.8523 3.71835 52.8081 4.10289 53.7659 4.55162C54.3584 4.88695 54.1402 4.71022 54.6338 5.02484C55.0123 5.26615 54.9359 5.22611 55.3565 5.43851C55.6169 5.63647 55.9071 5.88665 56.2169 6.09349C56.4578 6.33479 56.5336 6.39229 56.7745 6.63359C57.1531 6.90937 56.9396 6.74846 57.1961 6.99167C57.2438 7.02054 57.2686 7.0401 57.3086 7.07769C57.3621 7.14218 57.404 7.18621 57.4592 7.24815C57.5316 7.38084 57.5316 7.38084 57.5941 7.52988C57.6566 7.63329 57.6693 7.62215 57.8069 7.86346C57.9728 8.20818 57.9514 8.17568 58.1076 8.41423C58.9812 9.74836 59.5353 11.203 59.8106 12.7747C59.9788 13.7349 60.0954 14.6977 60.0757 15.6707C60.0252 18.1627 59.3757 20.4729 57.9134 22.517C57.4107 23.2197 56.785 23.8139 56.1205 24.3972C55.9415 24.5707 56.0514 24.4559 55.9415 24.5707C55.913 24.6006 55.8033 24.6857 55.7695 24.7086C55.7321 24.7243 55.7744 24.7009 55.735 24.7086C55.5013 24.7656 55.5501 25.0588 55.6834 25.1554C55.822 25.2558 55.9621 25.3738 56.1667 25.4069C56.5095 25.5103 56.7284 25.7587 57.0074 25.9625C57.3701 26.2577 57.7615 26.4718 58.0843 26.7838C58.4464 27.1338 58.8235 27.4671 59.1432 27.8589C59.2641 28.0071 59.3451 28.17 59.3663 28.3848Z" fill="#1BD745"/>
<path d="M52.8052 30.1323C52.8305 30.1217 52.8681 30.1189 52.9179 30.1246C52.8926 30.1355 52.8551 30.1379 52.8052 30.1323Z" fill="#626265"/>
<path d="M18.7125 24.3197C18.7941 24.371 18.7943 24.4337 18.8001 24.518C18.7244 24.7293 18.5431 24.825 18.4101 24.9616C18.2147 25.1622 18.28 25.2992 18.4615 25.4408C18.5621 25.5192 18.6932 25.542 18.7946 25.6158C18.981 25.7514 19.0903 25.9302 19.0718 26.1717C19.0552 26.389 18.8857 26.4349 18.7231 26.4962C18.4585 26.596 18.441 26.659 18.6134 26.8843C18.6551 26.9388 18.7056 26.985 18.7227 27.0549C18.736 27.1099 18.7405 27.1682 18.7987 27.244C19.2537 26.9102 19.6204 27.0846 19.9579 27.491C20.3835 28.5148 20.7949 29.5239 21.1923 30.5386C22.3016 33.3706 23.4048 36.205 24.5116 39.038C24.578 39.208 24.6552 39.3737 24.7296 39.5466C24.8953 39.4938 24.8923 39.3487 24.93 39.2414C25.8473 36.6312 26.7634 34.0205 27.6736 31.4078C28.6705 28.5461 29.6608 25.682 30.6549 22.8193C30.8244 22.3314 30.9929 21.843 31.1733 21.3591C31.2494 21.155 31.2566 20.9683 31.1807 20.7595C30.0447 17.6304 28.9133 14.4996 27.7835 11.3682C27.578 10.7986 27.3842 10.2248 27.1681 9.60419C27.5202 9.64502 27.7837 9.77931 28.0483 9.89346C30.575 10.9836 33.093 12.0944 35.6254 13.1711C38.5902 14.4316 41.5443 15.7155 44.4674 17.0709C44.7731 17.2126 44.7986 17.33 44.6666 17.6251C42.9846 21.3859 41.3258 25.1572 39.6423 28.9174C38.1979 32.1437 36.7258 35.3577 35.2722 38.5799C33.493 42.5239 31.7191 46.4704 29.9457 50.417C29.5629 51.2689 29.5682 51.2743 28.6502 51.2724C25.9781 51.2668 23.3059 51.2558 20.6337 51.2558C20.3826 51.2558 20.2477 51.187 20.149 50.9375C18.5277 46.8382 16.8919 42.7448 15.267 38.6469C13.6759 34.6344 12.0919 30.6192 10.5084 26.6037C9.97369 25.2478 9.45015 23.8875 8.91504 22.5024C8.92342 22.4756 8.93829 22.4756 8.96273 22.4553C8.96837 22.4202 8.96443 22.4054 8.95357 22.3686C8.91996 22.1877 8.9137 22.0273 8.91986 21.8672C8.93291 21.5281 9.08641 21.3107 9.30989 21.3049C9.55287 21.2986 9.64896 21.4513 9.65883 21.8641C9.92561 21.7991 10.0139 21.6383 9.93027 21.3789C9.90909 21.3132 9.88005 21.2409 9.89807 21.1768C9.99594 20.8283 9.98015 20.5395 9.61907 20.325C9.50028 20.2544 9.52561 20.0438 9.61433 19.9119C9.71174 19.7671 9.86124 19.7468 10.0089 19.8342C10.2678 19.9873 10.5831 19.9933 10.835 20.1626C10.9339 20.2291 11.0084 20.185 11.0634 20.0941C11.1055 20.0246 11.1145 19.9417 11.1478 19.869C11.2759 19.5897 11.4583 19.5253 11.7213 19.683C11.8672 19.7706 12.0131 19.7937 12.1794 19.787C12.5848 19.7706 12.7934 20.0386 12.6794 20.4203C12.6399 20.5526 12.6102 20.6874 12.5812 20.8211C12.4989 21.2014 12.3928 21.535 11.9463 21.6582C11.7395 21.7153 11.5807 22.2492 11.6345 22.4849C11.6552 22.5757 11.7064 22.5935 11.7849 22.57C11.8298 22.5566 11.8879 22.5312 11.8939 22.4932C11.9615 22.0698 12.4082 21.9062 12.5449 21.5298C12.6062 21.361 12.7186 21.2556 12.9154 21.2149C13.2404 21.1476 13.3748 20.8604 13.2625 20.5322C13.1967 20.3399 13.1406 20.1468 13.3404 20.0037C13.5534 19.8512 13.7225 19.9529 13.9293 20.0762C14.2662 20.277 14.4226 20.6055 14.6347 20.8971C14.7975 21.1208 14.7279 21.3226 14.5695 21.5228C14.2793 21.8896 14.3648 22.2044 14.813 22.3625C15.0381 22.4418 15.1626 22.5606 15.1707 22.8019C15.1763 22.9672 15.1978 23.139 15.4073 23.1653C15.6106 23.1908 15.7237 23.0654 15.7929 22.89C15.8266 22.8046 15.8607 22.7195 15.9346 22.6285C16.0901 22.5309 16.2246 22.5786 16.3842 22.6199C16.5001 22.6409 16.5896 22.6218 16.6802 22.6174C17.0455 22.5993 17.2763 22.8217 17.3071 23.1862C17.3244 23.3919 17.2413 23.6118 17.368 23.823C17.5074 23.7089 17.4506 23.5724 17.4556 23.4568C17.4644 23.2499 17.5666 23.1207 17.7598 23.1098C17.955 23.0987 18.1259 23.1982 18.1658 23.4039C18.1993 23.5765 18.222 23.7054 18.413 23.8006C18.5858 23.8866 18.521 24.1761 18.7125 24.3197Z" fill="white"/>
<path d="M18.7286 24.308C18.6686 24.3087 18.5685 24.2992 18.5495 24.2549C18.4551 24.0351 18.3656 23.8988 18.0777 24.0246C17.9593 24.0763 17.8287 23.9304 17.9106 23.7514C17.9342 23.6998 17.9722 23.6544 17.9926 23.6019C18.0352 23.4927 18.0037 23.3993 17.9111 23.3299C17.8553 23.2881 17.7895 23.2571 17.7205 23.2889C17.6177 23.3363 17.6251 23.4358 17.6287 23.5265C17.6313 23.5945 17.648 23.6619 17.656 23.7298C17.6802 23.937 17.6687 24.1624 17.409 24.1628C17.1823 24.1632 17.1098 23.9502 17.0936 23.7439C17.0892 23.6886 17.1109 23.6315 17.1182 23.575C17.1992 22.9408 17.11 22.8271 16.4699 22.7619C16.3441 22.6659 16.2953 22.567 16.3522 22.4274C16.3992 22.3123 16.414 22.188 16.4125 22.0631C16.4079 21.7029 16.2591 21.5978 15.8716 21.7062C15.6113 21.8379 15.5725 22.2892 15.7814 22.4818C15.8281 22.5249 15.888 22.5487 15.9495 22.6394C15.9739 22.9969 15.9526 23.2938 15.5542 23.3612C15.1289 23.4332 14.9968 23.3281 15.0015 22.9C15.0038 22.6984 14.9345 22.5582 14.7277 22.5303C14.2895 22.4714 14.2636 22.0728 14.1092 21.7845C14.0456 21.6658 14.1523 21.6136 14.2467 21.5537C14.6101 21.3229 14.6108 21.1952 14.3807 20.8372C14.2168 20.5821 14.022 20.3724 13.787 20.1897C13.6786 20.1054 13.5673 20.0435 13.4494 20.148C13.3147 20.2674 13.3604 20.4251 13.4666 20.5116C13.7246 20.7218 13.6215 20.8339 13.4388 21.0448C13.2731 21.2359 13.2 21.4876 12.8767 21.4245C12.8505 21.4194 12.7904 21.4524 12.7905 21.4674C12.7935 21.9271 12.2548 22.0262 12.1609 22.4289C12.0902 22.7321 11.7561 22.8964 11.4604 22.8203C11.2873 22.7757 11.2091 22.6984 11.3388 22.535C11.4192 22.4338 11.4835 22.3305 11.492 22.1972C11.5182 21.7871 11.6464 21.4574 12.1133 21.3755C12.2365 21.3539 12.2887 21.2472 12.3174 21.1247C12.3774 20.8685 12.4519 20.6158 12.5166 20.3606C12.5855 20.0885 12.464 19.9348 12.1818 19.9673C11.9677 19.9919 11.785 19.9936 11.6115 19.8277C11.4648 19.6874 11.3363 19.8006 11.3145 19.9525C11.2781 20.2067 11.0475 20.3533 10.9994 20.5952C10.9924 20.6304 10.9435 20.6794 10.9119 20.6811C10.883 20.6826 10.8293 20.632 10.824 20.5984C10.7339 20.0316 10.1623 20.2101 9.85903 19.9744C9.8169 19.9417 9.74904 19.9933 9.73233 20.0566C9.7093 20.1437 9.73676 20.2356 9.81341 20.2647C10.2406 20.4265 10.2283 20.7212 10.0838 21.0741C10.0275 21.2117 10.1171 21.3409 10.151 21.4727C10.2121 21.7102 10.1855 21.9144 9.90479 21.9849C9.77232 22.0182 9.67725 22.0782 9.62919 22.2128C9.59335 22.3132 9.52607 22.4256 9.40615 22.3612C9.27435 22.2905 9.38144 22.179 9.41573 22.092C9.46266 21.973 9.50146 21.8543 9.49171 21.7251C9.48376 21.6197 9.47133 21.5058 9.34112 21.4878C9.21393 21.4703 9.14764 21.57 9.12889 21.6715C9.08323 21.9187 9.05731 22.1696 9.01988 22.4477C8.99841 22.4763 8.9805 22.4762 8.9356 22.4758C8.35109 21.0806 7.80708 19.68 7.23146 18.2925C6.82313 17.3083 6.40992 16.3232 6.03167 15.3301C4.84385 12.2115 3.58764 9.1199 2.40625 5.99908C2.06924 5.10883 1.72677 4.22064 1.39029 3.33018C1.22844 2.90189 1.23732 2.89171 1.697 2.84774C2.00809 2.84179 1.96653 2.834 2.11412 2.84179C2.20245 2.84774 2.1984 2.84263 2.24937 2.84179C4.31801 2.84157 6.36488 2.84497 8.43895 2.84253C8.64936 2.84156 8.83255 2.84642 9.04587 2.84679C9.2054 2.81503 9.33975 2.83872 9.4863 2.821C9.71107 2.84109 9.91793 2.84412 10.1556 2.84266C10.259 2.76589 10.3394 2.75145 10.4395 2.83673C11.2268 4.79336 11.9822 6.72636 12.7296 8.66281C14.2953 12.7195 15.8841 16.7673 17.4559 20.8216C17.7316 21.5329 17.9566 22.2639 18.2315 22.9755C18.3993 23.4099 18.5855 23.837 18.7286 24.308Z" fill="white"/>
<path d="M19.9754 27.4769C19.8681 27.4738 19.7366 27.4732 19.6509 27.4102C19.3456 27.186 19.0945 27.1582 18.891 27.5351C18.8441 27.622 18.7433 27.6459 18.6479 27.6041C18.5514 27.5618 18.5107 27.4691 18.5325 27.3759C18.5805 27.1703 18.5086 27.0325 18.3513 26.9004C18.227 26.7959 18.2284 26.6358 18.2833 26.4847C18.3276 26.3629 18.41 26.3005 18.5461 26.3131C18.7008 26.3275 18.8696 26.3256 18.8953 26.1294C18.9204 25.9379 18.8064 25.7827 18.6294 25.7331C18.3648 25.659 18.2122 25.466 18.0435 25.2792C17.91 25.1314 17.9082 24.995 18.1035 24.9372C18.3584 24.8618 18.4159 24.4795 18.7746 24.5419C19.0036 24.8328 19.0871 25.1737 19.2095 25.4996C19.4553 26.1532 19.7171 26.8008 19.9754 27.4769Z" fill="white"/>
<path d="M13.3524 22.79C13.2796 23.3995 13.5342 23.9488 13.5056 24.5247C13.4983 24.6708 13.6417 24.7586 13.6969 24.8837C13.8132 25.1471 13.7404 25.2769 13.4618 25.3006C12.9497 25.3441 12.9564 25.3086 12.6763 24.8407C12.514 24.5696 12.3014 24.3346 12.23 24.0121C12.1951 23.8544 12.2059 23.7201 12.3723 23.6808C12.7125 23.6005 12.7466 23.359 12.7349 23.0749C12.7283 22.9149 12.7243 22.7529 12.7924 22.5716C13.1094 22.3984 13.2145 22.4394 13.3524 22.79Z" fill="white"/>
<path d="M17.0428 28.7796C16.8463 28.6815 16.5385 28.6965 16.5733 28.4335C16.6052 28.1921 16.894 28.1807 17.0993 28.1406C17.378 28.0861 17.6613 28.0532 17.9437 28.0207C18.1513 27.9968 18.262 28.0809 18.1759 28.2994C18.0592 28.5954 17.3676 28.8949 17.0428 28.7796Z" fill="white"/>
<path d="M15.742 21.5388C15.861 21.489 15.9593 21.4538 16.0594 21.4477C16.4405 21.4248 16.568 21.5553 16.5906 21.9313C16.6068 22.2009 16.5239 22.4465 16.4533 22.7248C16.307 22.7328 16.1638 22.7138 15.9945 22.6888C15.5787 22.3789 15.6173 21.9801 15.742 21.5388Z" fill="white"/>
<path d="M13.3774 22.8113C13.201 22.7025 13.0456 22.5911 12.8262 22.5506C12.8677 22.2624 12.9664 22.025 13.3155 21.9902C13.7629 21.9455 13.9335 22.1025 13.8687 22.5463C13.8269 22.8327 13.5536 22.7089 13.3774 22.8113Z" fill="white"/>
<path d="M16.3714 23.578C16.4212 23.5072 16.4637 23.4195 16.5353 23.4749C16.6145 23.5363 16.5899 23.6409 16.5609 23.7286C16.5406 23.7899 16.4912 23.8226 16.4287 23.7973C16.3338 23.759 16.337 23.6798 16.3714 23.578Z" fill="white"/>
<path d="M9.01678 22.4758C9.01699 22.4757 9.01886 22.4801 9.01758 22.4783C9.01629 22.4764 9.01657 22.476 9.01678 22.4758Z" fill="white"/>
<path d="M15.7395 21.5225C15.747 21.899 15.7386 22.286 15.9649 22.6572C15.5031 22.5537 15.375 21.9681 15.7395 21.5225Z" fill="white"/>
<path d="M17.5623 23.02C17.5617 23.0301 17.5576 23.0361 17.5535 23.0421C17.5488 23.0368 17.5442 23.0315 17.5396 23.0262C17.5459 23.0227 17.5523 23.0193 17.5623 23.02Z" fill="white"/>
<path d="M63.702 26.1642C63.7016 26.1629 63.7024 26.1655 63.702 26.1642V26.1642Z" fill="#8E8D8D"/>
</svg>
